<?xml version="1.0" encoding="utf-8"?>
<!-- Generator: Adobe Illustrator 19.2.0, SVG Export Plug-In . SVG Version: 6.00 Build 0)  -->
<!DOCTYPE svg PUBLIC "-//W3C//DTD SVG 1.1//EN" "http://www.w3.org/Graphics/SVG/1.1/DTD/svg11.dtd">
<svg version="1.1" id="Layer_1" xmlns="http://www.w3.org/2000/svg" xmlns:xlink="http://www.w3.org/1999/xlink" x="0px" y="0px"
	 viewBox="0 0 400 120" style="enable-background:new 0 0 400 120;" xml:space="preserve">
<metadata><?xpacket begin="﻿" id="W5M0MpCehiHzreSzNTczkc9d"?>
<x:xmpmeta xmlns:x="adobe:ns:meta/" x:xmptk="Adobe XMP Core 5.6-c111 79.158366, 2015/09/25-01:12:00        ">
   <rdf:RDF xmlns:rdf="http://www.w3.org/1999/02/22-rdf-syntax-ns#">
      <rdf:Description rdf:about=""/>
   </rdf:RDF>
</x:xmpmeta>
                                                                                                    
                                                                                                    
                                                                                                    
                                                                                                    
                                                                                                    
                                                                                                    
                                                                                                    
                                                                                                    
                                                                                                    
                                                                                                    
                                                                                                    
                                                                                                    
                                                                                                    
                                                                                                    
                                                                                                    
                                                                                                    
                                                                                                    
                                                                                                    
                                                                                                    
                                                                                                    
                           
<?xpacket end="w"?></metadata>
<style type="text/css">
	.st0{fill:#FFFFFF;}
</style>
<g>
	<g>
		<path class="st0" d="M60.9,115c-11.4,0-21.5-3.8-28.3-10.8c-9.8-9.8-12.8-25-8.6-44c4-18.6,13-37,23-46.8
			C53.8,6.6,61.1,3.3,69.6,3.3c2.7,0,5.5,0.3,8.5,1c10.4,2.2,20.2,11.8,29.7,21l1.1,1.1l1.4,1.4c9.1,9.5,17.7,18.4,21.7,28.3
			c4.2,11.4,1.2,22.5-8.6,32.2c-9.1,9.2-25.2,17.7-45.3,23.9C72.3,114,66.5,115,60.9,115z M69.6,4.1c-8.2,0-15.4,3.2-22,9.8
			c-10,9.8-18.9,28-22.8,46.4c-4.1,18.8-1.2,33.8,8.4,43.3c6.7,6.8,16.6,10.6,27.8,10.6c5.5,0,11.2-0.9,17-2.7
			c20-6.2,35.9-14.6,45-23.7c9.6-9.4,12.5-20.3,8.4-31.4c-3.9-9.8-12.4-18.7-21.5-28.1l-1.4-1.4l-1.1-1.1C97.9,16.7,88.1,7.2,77.9,5
			C74.9,4.4,72.2,4.1,69.6,4.1z"/>
		<path class="st0" d="M82.5,116.7c-2.9,0-5.8-0.4-8.7-1.3c-13.7-4.2-28-9.1-38.3-17.8c-5.1-4.5-9.1-10.2-11.8-17
			c-2.6-6.2-4.3-14.3-4.3-20c0-6.3,1.5-9.6,4.4-14c2.7-3.8,6.6-8.6,11.6-14.2C49.4,16.5,62,7.8,74,5.9c7.2-1.2,13.2-2,19-2
			c8.5,0,14.8,2.1,19.9,6.5s9.1,11.5,11.8,21c2.6,8.7,4.3,20.2,4.3,29.3c0,10.5-1.7,16.4-4.3,22.1c-2.8,5.9-6.7,11.8-11.7,17.3
			C106.4,107.6,95.8,116.7,82.5,116.7z M93,6.2c-5.6,0-11.5,0.9-18.6,2C63,10,50.8,18.5,37.2,34c-5,5.6-8.8,10.3-11.4,14
			c-2.8,4.1-4,6.9-4,12.6c0,4.5,1.3,12.2,4.1,19.1c2.6,6.5,6.4,11.9,11.2,16.1c9.9,8.4,24,13.1,37.5,17.3c2.6,0.8,5.3,1.2,8,1.2
			c6.8,0,17.3-2.7,28.7-15.8c4.8-5.3,8.7-11.1,11.3-16.8c2.5-5.4,4.1-11.1,4.1-21.1c0-8.9-1.6-20.2-4.2-28.6
			c-2.6-9-6.5-15.9-11.1-19.9C106.7,8,100.9,6.2,93,6.2z"/>
	</g>
	<path class="st0" d="M147.1,71.1h12.4v5.5h-18.6V47.4h6.2L147.1,71.1L147.1,71.1z M182,47.4l11.3,29.2h-7.1l-1.8-5h-12.5l-1.8,5
		H163l11.3-29.2C174.3,47.4,182,47.4,182,47.4z M182.6,66.2L178,53.6l-4.6,12.6H182.6z M216.8,64.7c0,4.1-2.3,6.9-6.8,6.9
		s-6.9-2.8-6.9-6.9V47.4h-6.3V65c0,7.2,4.3,12.2,13.2,12.2s13.2-4.9,13.2-12.2V47.4h-6.4V64.7z M236.4,55.3c0-1.8,1.5-2.9,4.2-2.9
		c3,0,6.1,1,8.5,3.2l3.5-4.6c-2.9-2.7-6.7-4.1-11.4-4.1c-6.9,0-11.1,4-11.1,8.9c0,11,16.8,7.4,16.8,12.6c0,1.7-1.7,3.2-5.1,3.2
		c-4,0-7.2-1.8-9.3-3.9l-3.4,4.7c2.7,2.8,6.7,4.6,12.4,4.6c7.9,0,11.7-4,11.7-9.4C253.1,56.8,236.4,59.9,236.4,55.3z M275.1,47.4
		l11.3,29.2h-7.1l-1.8-5H265l-1.8,5H256l11.3-29.2C267.3,47.4,275.1,47.4,275.1,47.4z M275.8,66.2l-4.6-12.6l-4.6,12.6H275.8z
		 M311.2,65.7l-13.5-18.4h-6.4v29.2h6.2v-19l13.9,19.1h6V47.4h-6.2V65.7z M345.4,65.7l-13.5-18.4h-6.4v29.2h6.2v-19l13.9,19.1h6
		V47.4h-6.2V65.7z M380.3,52.8v-5.5h-20.7v29.2h20.7V71h-14.5v-6.6H380V59h-14.2v-6.2H380.3z M63.4,65.4c0,5.5-3.1,9.3-9.2,9.3
		s-9.3-3.8-9.3-9.3V41.9h-8.5v23.8c0,9.7,5.8,16.5,17.8,16.5S72,75.5,72,65.7V41.9h-8.6V65.4z M114.9,41.9h-10.1l-9,13.5l-9.1-13.5
		h-10l13.5,19.3L75.8,81.4h10l10-14.5l9.9,14.5h10.1l-14.3-20.3L114.9,41.9z"/>
	<g>
		<path class="st0" d="M336,97.9v-1.5c5.3-4.1,8.2-6.6,8.2-9.1c0-1.9-1.6-2.7-3.1-2.7c-1.8,0-3.1,0.7-4,1.8l-1.1-1.2
			c1.1-1.5,3-2.3,5.1-2.3c2.4,0,4.9,1.4,4.9,4.3c0,3-3,5.7-7.1,9h7.2v1.6L336,97.9L336,97.9z"/>
		<path class="st0" d="M348.8,90.6c0-3.6,1.6-7.6,5.6-7.6s5.6,4,5.6,7.6s-1.6,7.6-5.6,7.6S348.8,94.1,348.8,90.6z M358.2,90.6
			c0-2.9-0.9-5.9-3.7-5.9c-2.8,0-3.7,3-3.7,5.9s0.9,6,3.7,6C357.3,96.5,358.2,93.5,358.2,90.6z"/>
		<path class="st0" d="M365.1,97.9V85.6l-2.4,2.5l-1.1-1.1l3.7-3.8h1.6v14.7C366.9,97.9,365.1,97.9,365.1,97.9z"/>
		<path class="st0" d="M369.8,90.6c0-4,1.8-7.6,6-7.6c1.9,0,3.1,0.7,4,1.8l-0.9,1.4c-0.7-0.9-1.6-1.5-3.1-1.5
			c-2.9,0-4.1,2.9-4.1,5.8c0,0.2,0,0.4,0,0.6c0.6-1,2.3-2.3,4.2-2.3c2.6,0,4.8,1.6,4.8,4.7c0,2.5-1.9,4.8-5.1,4.8
			C371.3,98.2,369.8,94.6,369.8,90.6z M378.7,93.4c0-2.2-1.5-3.2-3.4-3.2c-1.5,0-2.9,0.9-3.7,2.2c0.2,1.8,1.1,4.1,3.7,4.1
			C377.6,96.5,378.7,94.8,378.7,93.4z"/>
	</g>
</g>
</svg>
