<?xml version="1.0" encoding="utf-8"?>
<!-- Generator: Adobe Illustrator 19.2.0, SVG Export Plug-In . SVG Version: 6.00 Build 0)  -->
<!DOCTYPE svg PUBLIC "-//W3C//DTD SVG 1.1//EN" "http://www.w3.org/Graphics/SVG/1.1/DTD/svg11.dtd">
<svg version="1.1" id="Calque_1" xmlns:sketch="http://www.bohemiancoding.com/sketch/ns"
	 xmlns="http://www.w3.org/2000/svg" xmlns:xlink="http://www.w3.org/1999/xlink" x="0px" y="0px" viewBox="0 0 60 60"
	 style="enable-background:new 0 0 60 60;" xml:space="preserve">
<style type="text/css">
	.st0{fill:#22333F;}
</style>
<title>logo_uxls_grey_mini</title>
<desc>Created with Sketch.</desc>
<metadata><?xpacket begin="﻿" id="W5M0MpCehiHzreSzNTczkc9d"?>
<x:xmpmeta xmlns:x="adobe:ns:meta/" x:xmptk="Adobe XMP Core 5.6-c111 79.158366, 2015/09/25-01:12:00        ">
   <rdf:RDF xmlns:rdf="http://www.w3.org/1999/02/22-rdf-syntax-ns#">
      <rdf:Description rdf:about=""
            xmlns:dc="http://purl.org/dc/elements/1.1/">
         <dc:description>
            <rdf:Alt>
               <rdf:li xml:lang="x-default">Created with Sketch.</rdf:li>
            </rdf:Alt>
         </dc:description>
         <dc:title>
            <rdf:Alt>
               <rdf:li xml:lang="x-default">logo_uxls_grey_mini</rdf:li>
            </rdf:Alt>
         </dc:title>
      </rdf:Description>
   </rdf:RDF>
</x:xmpmeta>
                                                                                                    
                                                                                                    
                                                                                                    
                                                                                                    
                                                                                                    
                                                                                                    
                                                                                                    
                                                                                                    
                                                                                                    
                                                                                                    
                                                                                                    
                                                                                                    
                                                                                                    
                                                                                                    
                                                                                                    
                                                                                                    
                                                                                                    
                                                                                                    
                                                                                                    
                                                                                                    
                           
<?xpacket end="w"?></metadata>
<g id="Website" sketch:type="MSPage">
	<g id="logo_uxls_grey_mini" sketch:type="MSArtboardGroup">
		<g id="logo-UXLS" transform="translate(5.000000, 5.000000)" sketch:type="MSLayerGroup">
			<g id="Page-1" sketch:type="MSShapeGroup">
				<path id="Fill-1" class="st0" d="M10.2,36.6h1.3v0.6h-2V34h0.7V36.6L10.2,36.6z M14.7,34l1.2,3.2h-0.8L15,36.6h-1.4l-0.2,0.5
					h-0.8l1.2-3.2h0.9V34z M14.8,36l-0.5-1.4L13.8,36H14.8L14.8,36z M19.2,35.9c0,0.4-0.3,0.7-0.7,0.7c-0.5,0-0.7-0.3-0.7-0.7V34H17
					v1.9c0,0.8,0.5,1.3,1.4,1.3c1,0,1.4-0.5,1.4-1.3V34h-0.7v1.9H19.2z M22,34.9c0-0.2,0.2-0.3,0.5-0.3s0.7,0.1,0.9,0.3l0.4-0.5
					c-0.3-0.3-0.7-0.4-1.2-0.4c-0.7,0-1.2,0.4-1.2,1c0,1.2,1.8,0.8,1.8,1.4c0,0.2-0.2,0.4-0.5,0.4c-0.4,0-0.8-0.2-1-0.4l-0.4,0.5
					c0.3,0.3,0.7,0.5,1.3,0.5c0.9,0,1.3-0.4,1.3-1C23.8,35,22,35.4,22,34.9L22,34.9z M26.9,34l1.2,3.2h-0.8l-0.2-0.5h-1.4l-0.2,0.5
					h-0.8l1.2-3.2H26.9L26.9,34z M27,36l-0.5-1.4L26,36H27L27,36z M31.5,36L30,34h-0.7v3.2H30v-2.1l1.5,2.1h0.6V34h-0.7v2H31.5z
					 M35.9,36l-1.5-2h-0.7v3.2h0.7v-2.1l1.5,2.1h0.6V34h-0.7v2H35.9z M38.2,37.2h2.2v-0.6h-1.6v-0.7h1.5v-0.6h-1.5v-0.7h1.6V34h-2.2
					V37.2L38.2,37.2z M23.4,25.5v-9.3h-3.3v9.2c0,2.2-1.2,3.6-3.6,3.6s-3.6-1.5-3.6-3.6v-9.2H9.6v9.3c0,3.8,2.3,6.5,6.9,6.5
					S23.4,29.3,23.4,25.5L23.4,25.5z M40.4,31.7l-5.6-8l5.2-7.5h-3.9l-3.5,5.3l-3.5-5.3h-3.9l5.2,7.5l-5.6,7.9h3.9l3.9-5.7l3.9,5.7
					L40.4,31.7L40.4,31.7z"/>
				<path id="Fill-2" class="st0" d="M18.1,49c-5,0-9.4-1.7-12.4-4.7C1.5,40,0.2,33.3,2.1,25c1.7-8.1,5.7-16.2,10-20.5
					C15,1.5,18.2,0,21.9,0c1.2,0,2.4,0.1,3.7,0.4c4.5,1,8.8,5.2,13,9.2l0.5,0.5l0.6,0.6c4,4.1,7.7,8.1,9.4,12.4
					c1.8,5,0.5,9.9-3.7,14.1c-4,4-11,7.8-19.7,10.5C23.1,48.6,20.6,49,18.1,49L18.1,49z M21.9,0.4c-3.6,0-6.7,1.4-9.6,4.3
					C8,9,4.1,17,2.4,25C0.6,33.2,1.9,39.8,6,44c2.9,3,7.2,4.6,12.1,4.6c2.4,0,4.9-0.4,7.4-1.2C34.2,44.7,41.2,41,45.1,37
					c4.2-4.1,5.4-8.9,3.7-13.8c-1.7-4.3-5.4-8.2-9.4-12.3l-0.6-0.6l-0.5-0.5c-4.1-4-8.3-8.2-12.8-9.2C24.2,0.5,23.1,0.4,21.9,0.4
					L21.9,0.4z"/>
				<path id="Fill-3" class="st0" d="M27.6,49.8c-1.3,0-2.5-0.2-3.8-0.6c-6-1.9-12.2-4-16.7-7.8c-2.2-2-4-4.5-5.2-7.4
					C0.8,31.3,0,27.7,0,25.2c0-2.8,0.6-4.2,1.9-6.1c1.2-1.7,2.9-3.8,5-6.2C13.1,5.8,18.6,2,23.9,1.1c3.2-0.5,5.8-0.9,8.3-0.9
					c3.7,0,6.5,0.9,8.7,2.8s3.9,5,5.2,9.2C47.2,16,48,21.1,48,25.1c0,4.6-0.8,7.2-1.9,9.7c-1.2,2.6-2.9,5.2-5.1,7.6
					C38,45.8,33.3,49.8,27.6,49.8L27.6,49.8z M32.1,1.3c-2.4,0-5,0.4-8.1,0.9C19,3,13.7,6.7,7.8,13.5c-2.2,2.4-3.8,4.5-5,6.1
					c-1.2,1.8-1.7,3-1.7,5.5c0,2,0.6,5.4,1.8,8.4c1.1,2.8,2.8,5.2,4.9,7.1c4.3,3.7,10.4,5.8,16.3,7.6c1.1,0.4,2.3,0.5,3.5,0.5
					c3,0,7.5-1.2,12.5-6.9c2.1-2.3,3.8-4.9,4.9-7.4c1.1-2.4,1.8-4.9,1.8-9.3c0-3.9-0.7-8.9-1.8-12.6c-1.1-4-2.8-7-4.9-8.8
					C38.1,2.1,35.6,1.3,32.1,1.3L32.1,1.3z"/>
			</g>
		</g>
	</g>
</g>
</svg>
