<?xml version="1.0" encoding="utf-8"?>
<!-- Generator: Adobe Illustrator 18.0.0, SVG Export Plug-In . SVG Version: 6.00 Build 0)  -->
<!DOCTYPE svg PUBLIC "-//W3C//DTD SVG 1.1//EN" "http://www.w3.org/Graphics/SVG/1.1/DTD/svg11.dtd">
<svg version="1.1" id="logo_x5F_uxr" xmlns="http://www.w3.org/2000/svg" xmlns:xlink="http://www.w3.org/1999/xlink" x="0px"
	 y="0px" viewBox="29.6 162.1 238.3 74.2" enable-background="new 29.6 162.1 238.3 74.2" xml:space="preserve">
<path id="logo_x5F_ratio_1_" fill="#FFFFFF" d="M142.5,197.1c0-12.3-12.5-14.5-22.6-14.5c-11.7,0-23.4,4-24.2,17.1h14.1
	c0.6-5.6,4-7.7,9.3-7.7c5,0,9.1,0.8,9.1,6.9c0,5.8-8.1,5.6-16.9,6.7c-8.7,1.2-17.7,4-17.7,15.5c0,10.5,7.7,15.3,17.7,15.3
	c6.3,0,12.9-1.6,17.5-6.3c0,1.6,0.4,3.4,1,5h14.5c-1.4-2-1.8-6.7-1.8-11.3C142.5,223.7,142.5,197.1,142.5,197.1z M128.4,215.3
	c0,3-0.4,11.7-11.5,11.7c-4.6,0-8.7-1.2-8.7-6.5c0-5.2,4-6.5,8.3-7.5c4.4-0.8,9.3-0.8,11.7-3L128.4,215.3L128.4,215.3z M171.8,183.8
	h10.3v9.3h-10.3v25.4c0,4.8,1.2,6,6,6c1.6,0,3-0.2,4.4-0.4V235c-2.4,0.4-5.6,0.4-8.3,0.4c-8.7,0-16.3-2-16.3-12.1v-30H149V184h8.5
	v-15.3h14.3V183.8L171.8,183.8z M241.1,182.4c-16.3,0-26.8,10.7-26.8,27s10.5,27,26.8,27s26.8-10.7,26.8-27S257.4,182.4,241.1,182.4
	z M241.1,225.8c-9.5,0-12.5-8.1-12.5-16.3s3-16.5,12.5-16.5c9.7,0,12.5,8.1,12.5,16.5C253.6,217.7,250.8,225.8,241.1,225.8z
	 M192.1,183.8h14.3V235h-14.3V183.8z M207,170.1c0,4.4-3.6,7.9-8.1,7.9c-4.4,0-8.1-3.6-8.1-7.9s3.6-7.9,8.1-7.9
	C203.4,161.9,207,165.7,207,170.1z M87.5,182.4c1,0,2.2,0.2,3.2,0.4v13.1c-1.4-0.2-3.4-0.4-5.2-0.4c-10.3,0-14.1,7.3-14.1,16.5v23
	H57.1v-51.2h13.5v9.5h0.2C73.6,186.9,80.6,182.4,87.5,182.4z M45.8,192.3c0,4.4-3.6,7.9-8.1,7.9c-4.4,0-8.1-3.6-8.1-7.9
	c0-4.4,3.6-7.9,8.1-7.9S45.8,187.9,45.8,192.3z M45.8,228c0,4.4-3.6,7.9-8.1,7.9c-4.4,0-8.1-3.6-8.1-7.9c0-4.4,3.6-7.9,8.1-7.9
	C42.3,219.9,45.8,223.5,45.8,228z"/>
</svg>
